<svg viewBox="0 0 89 89" fill="none" xmlns="http://www.w3.org/2000/svg">
<path d="M78.5538 20.7759H7.43164V68.224H81.5686V20.7759H78.5538ZM75.5862 23.7407L46.9449 52.382C45.6377 53.6892 43.3598 53.6892 42.0526 52.382L13.4058 23.7407H75.5862ZM10.3965 24.9227L29.651 44.1745L10.3965 63.4291V24.9199V24.9227ZM12.7633 65.2592L31.7509 46.2744L39.9584 54.4791C41.171 55.6917 42.7841 56.362 44.5001 56.362C46.2162 56.362 47.8293 55.6917 49.0419 54.4791L57.2494 46.2716L76.2342 65.2564H12.7605L12.7633 65.2592ZM78.6038 63.4319L59.3492 44.1745L78.6038 24.9172V63.4319Z" fill="#727272"/>
</svg>
